<svg width="124" height="34" viewBox="0 0 124 34" fill="none" xmlns="http://www.w3.org/2000/svg">
<path d="M18.9649 4.30597C18.3747 3.89737 17.6937 3.55687 16.9219 3.28447C16.1501 2.98937 15.3556 2.77372 14.5384 2.63752C13.7212 2.47862 12.9267 2.39917 12.1549 2.39917C10.4524 2.39917 8.87478 2.69427 7.42198 3.28447C5.96918 3.87467 4.70933 4.71457 3.64243 5.80417C2.57553 6.87107 1.74698 8.15362 1.15678 9.65182C0.566584 11.1273 0.271484 12.7504 0.271484 14.521C0.271484 16.2689 0.543884 17.8692 1.08868 19.322C1.63348 20.7748 2.41663 22.0347 3.43813 23.1016C4.48233 24.1685 5.74218 24.997 7.21768 25.5872C8.71588 26.1547 10.407 26.4385 12.2911 26.4385C13.0856 26.4385 13.8915 26.3704 14.7087 26.2342C15.5486 26.098 16.3544 25.905 17.1262 25.6553C17.9207 25.4056 18.6131 25.0992 19.2033 24.736L16.8538 20.1052C16.2636 20.4684 15.594 20.7748 14.8449 21.0245C14.0958 21.2515 13.3013 21.365 12.4614 21.365C11.735 21.365 11.0199 21.2175 10.3162 20.9224C9.63524 20.6046 9.02233 20.1506 8.47754 19.5604C7.93273 18.9702 7.49008 18.2551 7.14958 17.4152C6.83178 16.5526 6.67288 15.5765 6.67288 14.4869C6.67288 13.0795 6.94528 11.8537 7.49008 10.8095C8.03488 9.74262 8.72723 8.92542 9.56713 8.35792C10.4297 7.76772 11.315 7.47262 12.223 7.47262C12.7451 7.47262 13.2218 7.50667 13.6531 7.57477C14.0844 7.62017 14.5611 7.71097 15.0832 7.84717C15.628 7.98337 16.309 8.19902 17.1262 8.49412L18.9649 4.30597Z" fill="white"/>
<path d="M25.7989 20.5819C25.7989 20.196 25.9237 19.8782 26.1734 19.6285C26.4458 19.3788 26.7863 19.2539 27.1949 19.2539H29.1017V20.8202C28.7385 21.1153 28.3753 21.3423 28.0121 21.5012C27.6489 21.6601 27.2857 21.7396 26.9225 21.7396C26.7182 21.7396 26.5253 21.6942 26.3437 21.6034C26.1848 21.4899 26.0486 21.3537 25.9351 21.1948C25.8443 21.0132 25.7989 20.8089 25.7989 20.5819ZM22.8025 14.9296C23.4381 14.6572 24.1418 14.4302 24.9136 14.2486C25.6854 14.0443 26.355 13.9421 26.9225 13.9421C27.4446 13.9421 27.8986 14.0783 28.2845 14.3507C28.6704 14.6231 28.9201 15.0658 29.0336 15.6787L29.0677 15.8489H27.0928C25.186 15.8489 23.631 16.2121 22.4279 16.9385C21.2248 17.6422 20.6233 18.8907 20.6233 20.684C20.6233 22.3865 21.134 23.7599 22.1555 24.8041C23.177 25.8483 24.732 26.3704 26.8204 26.3704C27.5241 26.3704 28.1824 26.1888 28.7953 25.8256C29.4309 25.4624 30.0097 24.9516 30.5318 24.2933L32.3024 25.9958H35.2988V15.7808C35.2988 14.3734 35.0378 13.159 34.5157 12.1375C34.0163 11.116 33.2558 10.3215 32.2343 9.75397C31.2128 9.18647 29.953 8.90272 28.4548 8.90272C27.5468 8.90272 26.6388 8.98217 25.7308 9.14107C24.8455 9.27727 24.0056 9.47022 23.2111 9.71992C22.4393 9.94692 21.7583 10.1966 21.1681 10.469L22.8025 14.9296Z" fill="white"/>
<path d="M45.098 25.9958V1.95652L38.9009 2.33107V25.9958H45.098Z" fill="white"/>
<path d="M55.0324 25.9958V9.48157H48.8353V25.9958H55.0324ZM51.8998 7.23427C52.8305 7.23427 53.625 6.90512 54.2833 6.24682C54.9643 5.58852 55.3048 4.80537 55.3048 3.89737C55.3048 2.96667 54.9643 2.17217 54.2833 1.51387C53.625 0.83287 52.8305 0.492371 51.8998 0.492371C50.9918 0.492371 50.2086 0.83287 49.5503 1.51387C48.892 2.17217 48.5629 2.96667 48.5629 3.89737C48.5629 4.80537 48.892 5.58852 49.5503 6.24682C50.2086 6.90512 50.9918 7.23427 51.8998 7.23427Z" fill="white"/>
<path d="M74.5508 9.51562H71.4522L68.3537 13.3973V26.5066C68.3537 27.1649 68.0359 27.7097 67.4003 28.141C66.7874 28.595 65.9929 28.822 65.0168 28.822C64.3358 28.822 63.564 28.7425 62.7014 28.5836C61.8615 28.4474 60.8854 28.1069 59.7731 27.5621L57.9003 31.9205C58.4451 32.261 59.0694 32.5561 59.7731 32.8058C60.4995 33.0555 61.2259 33.2485 61.9523 33.3847C62.7014 33.5436 63.3824 33.6571 63.9953 33.7252C64.6309 33.7933 65.1189 33.8273 65.4594 33.8273C67.2981 33.8273 68.8985 33.5095 70.2605 32.8739C71.6225 32.261 72.678 31.3984 73.4271 30.2861C74.1762 29.1965 74.5508 27.948 74.5508 26.5406V9.51562ZM70.3626 19.3561C69.7043 20.0371 69.0914 20.5819 68.5239 20.9905C67.9564 21.3991 67.4003 21.6034 66.8555 21.6034C66.2199 21.6034 65.6751 21.4558 65.2211 21.1607C64.7671 20.8656 64.4152 20.4343 64.1655 19.8668C63.9385 19.2766 63.825 18.5616 63.825 17.7217C63.825 16.8591 63.9499 16.1327 64.1996 15.5425C64.4493 14.9296 64.7784 14.4642 65.187 14.1464C65.6183 13.8286 66.0837 13.6697 66.5831 13.6697C67.1733 13.6697 67.7862 13.84 68.4218 14.1805C69.0574 14.4983 69.7043 14.9636 70.3626 15.5765L72.0992 11.9332C71.4636 11.2068 70.8166 10.6279 70.1583 10.1966C69.5227 9.74262 68.8644 9.41347 68.1834 9.20917C67.5251 9.00487 66.8555 8.90272 66.1745 8.90272C64.4493 8.90272 62.9284 9.23187 61.6118 9.89017C60.2952 10.5485 59.2623 11.5359 58.5132 12.8525C57.7868 14.1464 57.4236 15.7808 57.4236 17.7557C57.4236 19.7079 57.7868 21.331 58.5132 22.6249C59.2623 23.8961 60.2725 24.8381 61.5437 25.451C62.8376 26.0639 64.2904 26.3704 65.9021 26.3704C66.7647 26.3704 67.5819 26.2228 68.3537 25.9277C69.1482 25.6326 69.8632 25.2581 70.4988 24.8041C71.1571 24.3274 71.6906 23.8393 72.0992 23.3399L70.3626 19.3561Z" fill="white"/>
<path d="M89.3319 9.51562V20.6159C89.0141 20.7521 88.6396 20.8997 88.2083 21.0586C87.7997 21.1948 87.3911 21.3196 86.9825 21.4331C86.5966 21.5239 86.2674 21.5693 85.995 21.5693C85.314 21.5693 84.8487 21.365 84.599 20.9564C84.3493 20.5478 84.2244 20.0938 84.2244 19.5944V9.51562H78.0273V20.1733C78.0273 21.3991 78.2316 22.5 78.6402 23.4761C79.0715 24.4295 79.7298 25.19 80.6151 25.7575C81.5004 26.3023 82.6354 26.5747 84.0201 26.5747C84.9054 26.5747 85.7567 26.4498 86.5739 26.2001C87.4138 25.9731 88.1856 25.6894 88.8893 25.3489C89.593 25.0084 90.2172 24.6679 90.762 24.3274L92.5326 26.0299H95.529V9.51562H89.3319Z" fill="white"/>
<path d="M105.484 25.9958V1.95652L99.2865 2.33107V25.9958H105.484Z" fill="white"/>
<path d="M113.784 20.5819C113.784 20.196 113.908 19.8782 114.158 19.6285C114.43 19.3788 114.771 19.2539 115.18 19.2539H117.086V20.8202C116.723 21.1153 116.36 21.3423 115.997 21.5012C115.634 21.6601 115.27 21.7396 114.907 21.7396C114.703 21.7396 114.51 21.6942 114.328 21.6034C114.169 21.4899 114.033 21.3537 113.92 21.1948C113.829 21.0132 113.784 20.8089 113.784 20.5819ZM110.787 14.9296C111.423 14.6572 112.126 14.4302 112.898 14.2486C113.67 14.0443 114.34 13.9421 114.907 13.9421C115.429 13.9421 115.883 14.0783 116.269 14.3507C116.655 14.6231 116.905 15.0658 117.018 15.6787L117.052 15.8489H115.077C113.171 15.8489 111.616 16.2121 110.413 16.9385C109.209 17.6422 108.608 18.8907 108.608 20.684C108.608 22.3865 109.119 23.7599 110.14 24.8041C111.162 25.8483 112.717 26.3704 114.805 26.3704C115.509 26.3704 116.167 26.1888 116.78 25.8256C117.416 25.4624 117.994 24.9516 118.516 24.2933L120.287 25.9958H123.283V15.7808C123.283 14.3734 123.022 13.159 122.5 12.1375C122.001 11.116 121.24 10.3215 120.219 9.75397C119.197 9.18647 117.938 8.90272 116.439 8.90272C115.531 8.90272 114.623 8.98217 113.715 9.14107C112.83 9.27727 111.99 9.47022 111.196 9.71992C110.424 9.94692 109.743 10.1966 109.153 10.469L110.787 14.9296Z" fill="white"/>
</svg>
