<svg width="124" height="34" viewBox="0 0 124 34" fill="none" xmlns="http://www.w3.org/2000/svg">
<path d="M18.965 4.30594C18.3748 3.89734 17.6938 3.55684 16.922 3.28444C16.1502 2.98934 15.3557 2.77369 14.5385 2.63749C13.7213 2.47859 12.9268 2.39914 12.1549 2.39914C10.4525 2.39914 8.8748 2.69424 7.422 3.28444C5.9692 3.87464 4.70935 4.71454 3.64245 5.80414C2.57555 6.87104 1.747 8.15359 1.1568 9.65179C0.5666 11.1273 0.2715 12.7503 0.2715 14.5209C0.2715 16.2688 0.5439 17.8692 1.0887 19.322C1.6335 20.7748 2.41665 22.0346 3.43815 23.1015C4.48235 24.1684 5.7422 24.997 7.2177 25.5872C8.7159 26.1547 10.4071 26.4384 12.2912 26.4384C13.0857 26.4384 13.8915 26.3703 14.7087 26.2341C15.5486 26.0979 16.3545 25.905 17.1263 25.6553C17.9208 25.4056 18.6131 25.0991 19.2033 24.7359L16.8539 20.1051C16.2637 20.4683 15.594 20.7748 14.8449 21.0245C14.0958 21.2515 13.3013 21.365 12.4614 21.365C11.735 21.365 11.02 21.2174 10.3163 20.9223C9.63525 20.6045 9.02235 20.1505 8.47755 19.5603C7.93275 18.9701 7.4901 18.2551 7.1496 17.4152C6.8318 16.5526 6.6729 15.5765 6.6729 14.4869C6.6729 13.0795 6.9453 11.8537 7.4901 10.8095C8.0349 9.74259 8.72725 8.92539 9.56715 8.35789C10.4298 7.76769 11.3151 7.47259 12.2231 7.47259C12.7452 7.47259 13.2219 7.50664 13.6531 7.57474C14.0845 7.62014 14.5612 7.71094 15.0833 7.84714C15.6281 7.98334 16.3091 8.19899 17.1263 8.49409L18.965 4.30594ZM25.7989 20.5818C25.7989 20.1959 25.9237 19.8781 26.1734 19.6284C26.4458 19.3787 26.7863 19.2539 27.1949 19.2539H29.1017V20.8202C28.7385 21.1153 28.3753 21.3423 28.0121 21.5012C27.6489 21.6601 27.2857 21.7395 26.9225 21.7395C26.7182 21.7395 26.5253 21.6941 26.3437 21.6033C26.1848 21.4898 26.0486 21.3536 25.9351 21.1947C25.8443 21.0131 25.7989 20.8088 25.7989 20.5818ZM22.8025 14.9295C23.4381 14.6571 24.1418 14.4301 24.9136 14.2485C25.6854 14.0442 26.355 13.9421 26.9225 13.9421C27.4446 13.9421 27.8986 14.0783 28.2845 14.3507C28.6704 14.6231 28.9201 15.0657 29.0336 15.6786L29.0677 15.8489H27.0928C25.186 15.8489 23.631 16.2121 22.4279 16.9385C21.2248 17.6422 20.6233 18.8907 20.6233 20.684C20.6233 22.3865 21.134 23.7598 22.1555 24.804C23.177 25.8482 24.732 26.3703 26.8204 26.3703C27.5241 26.3703 28.1824 26.1887 28.7953 25.8255C29.4309 25.4623 30.0097 24.9516 30.5318 24.2933L32.3024 25.9958H35.2988V15.7808C35.2988 14.3734 35.0378 13.1589 34.5157 12.1374C34.0163 11.1159 33.2558 10.3214 32.2343 9.75394C31.2128 9.18644 29.953 8.90269 28.4548 8.90269C27.5468 8.90269 26.6388 8.98214 25.7308 9.14104C24.8455 9.27724 24.0056 9.47019 23.2111 9.71989C22.4393 9.94689 21.7583 10.1966 21.1681 10.469L22.8025 14.9295ZM45.0981 25.9958V1.95649L38.901 2.33104V25.9958H45.0981ZM55.0324 25.9958V9.48154H48.8353V25.9958H55.0324ZM51.8998 7.23424C52.8305 7.23424 53.625 6.90509 54.2833 6.24679C54.9643 5.58849 55.3048 4.80534 55.3048 3.89734C55.3048 2.96664 54.9643 2.17214 54.2833 1.51384C53.625 0.832838 52.8305 0.492339 51.8998 0.492339C50.9918 0.492339 50.2087 0.832838 49.5504 1.51384C48.8921 2.17214 48.5629 2.96664 48.5629 3.89734C48.5629 4.80534 48.8921 5.58849 49.5504 6.24679C50.2087 6.90509 50.9918 7.23424 51.8998 7.23424ZM74.5508 9.51559H71.4522L68.3537 13.3973V26.5065C68.3537 27.1648 68.0359 27.7096 67.4003 28.1409C66.7874 28.5949 65.9929 28.8219 65.0168 28.8219C64.3358 28.8219 63.564 28.7425 62.7014 28.5836C61.8615 28.4474 60.8854 28.1069 59.7731 27.5621L57.9003 31.9205C58.4451 32.261 59.0694 32.5561 59.7731 32.8058C60.4995 33.0555 61.2259 33.2484 61.9523 33.3846C62.7014 33.5435 63.3824 33.657 63.9953 33.7251C64.6309 33.7932 65.1189 33.8273 65.4594 33.8273C67.2981 33.8273 68.8985 33.5095 70.2605 32.8739C71.6225 32.261 72.678 31.3984 73.4271 30.2861C74.1762 29.1965 74.5508 27.948 74.5508 26.5406V9.51559ZM70.3626 19.356C69.7043 20.037 69.0914 20.5818 68.5239 20.9904C67.9564 21.399 67.4003 21.6033 66.8555 21.6033C66.2199 21.6033 65.6751 21.4558 65.2211 21.1607C64.7671 20.8656 64.4152 20.4343 64.1655 19.8668C63.9385 19.2766 63.825 18.5615 63.825 17.7216C63.825 16.859 63.9499 16.1326 64.1996 15.5424C64.4493 14.9295 64.7784 14.4642 65.187 14.1464C65.6183 13.8286 66.0837 13.6697 66.5831 13.6697C67.1733 13.6697 67.7862 13.8399 68.4218 14.1804C69.0574 14.4982 69.7043 14.9636 70.3626 15.5765L72.0992 11.9331C71.4636 11.2067 70.8166 10.6279 70.1583 10.1966C69.5227 9.74259 68.8644 9.41344 68.1834 9.20914C67.5251 9.00484 66.8555 8.90269 66.1745 8.90269C64.4493 8.90269 62.9284 9.23184 61.6118 9.89014C60.2952 10.5484 59.2623 11.5359 58.5132 12.8525C57.7868 14.1464 57.4236 15.7808 57.4236 17.7557C57.4236 19.7079 57.7868 21.3309 58.5132 22.6248C59.2623 23.896 60.2725 24.8381 61.5437 25.451C62.8376 26.0639 64.2904 26.3703 65.9021 26.3703C66.7647 26.3703 67.5819 26.2228 68.3537 25.9277C69.1482 25.6326 69.8632 25.258 70.4988 24.804C71.1571 24.3273 71.6906 23.8393 72.0992 23.3399L70.3626 19.356ZM89.3319 9.51559V20.6159C89.0141 20.7521 88.6396 20.8996 88.2083 21.0585C87.7997 21.1947 87.3911 21.3196 86.9825 21.4331C86.5966 21.5239 86.2674 21.5693 85.995 21.5693C85.314 21.5693 84.8487 21.365 84.599 20.9564C84.3493 20.5478 84.2244 20.0938 84.2244 19.5944V9.51559H78.0273V20.1732C78.0273 21.399 78.2316 22.5 78.6402 23.4761C79.0715 24.4295 79.7298 25.1899 80.6151 25.7574C81.5004 26.3022 82.6354 26.5746 84.0201 26.5746C84.9054 26.5746 85.7567 26.4498 86.5739 26.2001C87.4138 25.9731 88.1856 25.6893 88.8893 25.3488C89.593 25.0083 90.2172 24.6678 90.762 24.3273L92.5326 26.0298H95.529V9.51559H89.3319ZM105.484 25.9958V1.95649L99.2865 2.33104V25.9958H105.484ZM113.784 20.5818C113.784 20.1959 113.908 19.8781 114.158 19.6284C114.431 19.3787 114.771 19.2539 115.18 19.2539H117.086V20.8202C116.723 21.1153 116.36 21.3423 115.997 21.5012C115.634 21.6601 115.27 21.7395 114.907 21.7395C114.703 21.7395 114.51 21.6941 114.328 21.6033C114.169 21.4898 114.033 21.3536 113.92 21.1947C113.829 21.0131 113.784 20.8088 113.784 20.5818ZM110.787 14.9295C111.423 14.6571 112.126 14.4301 112.898 14.2485C113.67 14.0442 114.34 13.9421 114.907 13.9421C115.429 13.9421 115.883 14.0783 116.269 14.3507C116.655 14.6231 116.905 15.0657 117.018 15.6786L117.052 15.8489H115.077C113.171 15.8489 111.616 16.2121 110.413 16.9385C109.21 17.6422 108.608 18.8907 108.608 20.684C108.608 22.3865 109.119 23.7598 110.14 24.804C111.162 25.8482 112.717 26.3703 114.805 26.3703C115.509 26.3703 116.167 26.1887 116.78 25.8255C117.416 25.4623 117.994 24.9516 118.517 24.2933L120.287 25.9958H123.284V15.7808C123.284 14.3734 123.022 13.1589 122.5 12.1374C122.001 11.1159 121.241 10.3214 120.219 9.75394C119.198 9.18644 117.938 8.90269 116.439 8.90269C115.531 8.90269 114.623 8.98214 113.715 9.14104C112.83 9.27724 111.99 9.47019 111.196 9.71989C110.424 9.94689 109.743 10.1966 109.153 10.469L110.787 14.9295Z" fill="white"/>
</svg>
